<svg width="125" height="168" viewBox="0 0 125 168" fill="none" xmlns="http://www.w3.org/2000/svg"
  class="h-5 w-auto">
  <g clip-path="url(#clip0_1848_799)">
    <path
      d="M39.2484 27.7964C38.9849 27.8555 38.9634 27.6029 39.1247 27.5115C44.3023 24.4845 51.6734 23.764 52.2219 23.3501C52.7165 22.6565 48.8508 22.6941 47.5067 22.6995C37.7268 23.0382 29.2857 26.6781 22.2748 33.2912C11.5111 42.4635 7.98408 57.5553 9.47337 71.1255C11.2154 85.1582 18.9252 98.3413 30.3718 106.632C54.2273 122.67 87.911 115.008 105.761 93.1799C127.74 66.534 121.181 28.5975 98.2016 11.2583C92.2391 7.11842 85.7228 3.84952 78.6903 1.9785C75.4107 1.00535 70.846 0.0698446 68.7492 -4.97611e-05C65.534 -0.102203 66.604 2.54303 66.0341 3.19359C65.4641 3.84414 59.5769 4.10759 66.2384 6.44636C70.1793 7.82812 67.7814 7.90877 64.776 10.6293C62.1146 13.0379 64.4372 15.7369 63.5179 16.6832C59.5715 20.7478 65.6147 22.5328 68.7331 24.3071C83.841 32.3718 92.1638 46.8883 89.411 63.9802C85.5453 86.5615 51.9154 96.3144 37.0333 78.4591C25.5867 64.9211 29.9148 42.3828 46.2109 35.0332C48.4691 33.9417 53.566 32.3503 51.3777 32.5331C42.942 33.2374 36.3558 37.7268 34.2267 39.3559C34.0439 39.4957 33.802 39.2806 33.9149 39.0817C35.458 36.3665 44.3991 30.033 61.9909 27.8072C65.1362 27.1297 53.3025 24.6512 39.2484 27.7964Z"
      fill="currentColor"></path>
    <path
      d="M46.4572 163.574C47.4142 163.563 48.3659 163.703 49.2584 163.795C51.5541 163.864 54.1349 163.601 56.6564 163.929C62.1404 164.241 67.6675 165.472 73.1676 165.606C76.9581 165.886 80.5764 165.714 84.4475 165.859C87.3669 166.235 90.8348 166.004 93.4531 166.397C95.0876 166.585 96.5876 166.504 98.2275 166.746C102.566 167.365 106.889 167.456 111.282 167.397C112.954 167.451 114.669 167.483 116.335 167.375C118.115 167.273 120.056 167.348 121.486 166.209C122.336 165.709 122.293 164.692 122.47 163.993C122.69 163.612 123.153 163.407 123.357 163.02C123.583 162.354 123.728 161.66 123.739 160.977V160.934C123.787 158.612 122.674 156.327 121.825 154.171C120.411 151.047 118.75 148.127 116.954 145.203C114.948 142.369 113.943 138.504 110.534 136.971C104.389 134.278 98.0715 134.563 91.2703 133.74C78.4688 132.605 64.8717 131.772 52.9735 131.611C41.8711 131.772 22.2576 132.498 12.1606 133.396C-5.77538 134.993 2.57431 137.837 2.00978 142.869C1.80547 144.724 -0.221468 144.574 0.00434428 146.391C0.380699 149.025 5.32169 152.321 7.80563 152.988C18.7468 155.913 4.23027 156.348 5.85397 159.273C7.20347 161.708 13.2251 161.009 15.6822 161.977L46.4465 163.574H46.4572Z"
      fill="currentColor"></path>
  </g>
</svg>
